<svg xmlns="http://www.w3.org/2000/svg" xmlns:xlink="http://www.w3.org/1999/xlink" viewBox="0,0,255.99689,255.99689" width="48px" height="48px" fill-rule="nonzero"><g fill="#4b5563" fill-rule="nonzero" stroke="none" stroke-width="1" stroke-linecap="butt" stroke-linejoin="miter" stroke-miterlimit="10" stroke-dasharray="" stroke-dashoffset="0" font-family="none" font-weight="none" font-size="none" text-anchor="none" style="mix-blend-mode: normal"><g transform="scale(5.33333,5.33333)"><path d="M11.5,6c-3.01977,0 -5.5,2.48023 -5.5,5.5v6.56445c-0.00765,0.54095 0.27656,1.04412 0.74381,1.31683c0.46725,0.27271 1.04514,0.27271 1.51238,0c0.46725,-0.27271 0.75146,-0.77588 0.74381,-1.31683v-6.56445c0,-1.39823 1.10177,-2.5 2.5,-2.5h25c1.39823,0 2.5,1.10177 2.5,2.5v11.33008c-0.00765,0.54095 0.27656,1.04412 0.74381,1.31683c0.46725,0.27271 1.04514,0.27271 1.51238,0c0.46725,-0.27271 0.75146,-0.77588 0.74381,-1.31683v-11.33008c0,-3.01977 -2.48023,-5.5 -5.5,-5.5zM13.82813,14l7.73633,11.05664l-7.74219,8.94336h2.04297l6.60352,-7.64844l5.35156,7.64844h6.4375l-8.23242,-11.76562l7.11133,-8.23437h-2l-6.01367,6.94336l-4.85742,-6.94336zM16.93555,15.69531h2.5625l11.65234,16.60938h-2.5625zM7.47656,24.47852c-0.82766,0.01293 -1.48844,0.69381 -1.47656,1.52148v10.5c0,3.01977 2.48023,5.5 5.5,5.5h25c3.01977,0 5.5,-2.48023 5.5,-5.5v-5c0.00765,-0.54095 -0.27656,-1.04412 -0.74381,-1.31683c-0.46725,-0.27271 -1.04514,-0.27271 -1.51238,0c-0.46725,0.27271 -0.75146,0.77588 -0.74381,1.31683v5c0,1.39823 -1.10177,2.5 -2.5,2.5h-25c-1.39823,0 -2.5,-1.10177 -2.5,-2.5v-10.5c0.00582,-0.40562 -0.15288,-0.7963 -0.43991,-1.08296c-0.28703,-0.28666 -0.67792,-0.44486 -1.08353,-0.43852z"></path></g></g></svg>